<?xml version="1.0" standalone="no"?><!DOCTYPE svg PUBLIC "-//W3C//DTD SVG 1.1//EN" "http://www.w3.org/Graphics/SVG/1.1/DTD/svg11.dtd"><svg t="1552283905662" class="icon" style="" viewBox="0 0 1024 1024" version="1.1" xmlns="http://www.w3.org/2000/svg" p-id="4713" xmlns:xlink="http://www.w3.org/1999/xlink" width="200" height="200"><defs><style type="text/css"></style></defs><path d="M417.606655 384.547213 632.140753 384.547213l0 271.961018L417.606655 656.508231 417.606655 384.547213zM494.97065 352.273159l60.278875 0c1.89721 0 3.637854-0.713244 5.219885-2.13564 1.583055-1.423419 2.373047-3.400446 2.373047-5.932106s-0.789992-4.50971-2.373047-5.932106c-1.582031-1.426489-3.321652-2.136663-5.219885-2.136663l-60.278875 0c-1.582031 0-3.242857 0.710175-4.982478 2.136663-1.740644 1.423419-2.610454 3.400446-2.610454 5.932106s0.789992 4.508687 2.373047 5.932106C491.33382 351.559914 493.07344 352.273159 494.97065 352.273159zM524.87268 669.798932c-6.644327 0-12.418844 2.372024-17.323551 7.118118-4.904707 4.747117-7.356548 10.600429-7.356548 17.560958 0 6.64535 2.451842 12.419867 7.356548 17.324574s10.679223 7.357572 17.323551 7.357572c6.962575 0 12.81384-2.452865 17.563004-7.357572 4.746094-4.904707 7.119141-10.679223 7.119141-17.324574 0-6.960529-2.373047-12.81384-7.119141-17.560958C537.686521 672.171979 531.835256 669.798932 524.87268 669.798932zM957.372022 507.906775c0 245.408269-198.941981 444.350251-444.349227 444.350251-245.408269 0-444.350251-198.941981-444.350251-444.350251s198.941981-444.350251 444.350251-444.350251C758.43004 63.556525 957.372022 262.498506 957.372022 507.906775zM670.58432 361.765347c0-7.910157-1.583055-15.346523-4.747117-22.307052-3.164063-6.962575-7.515161-13.053294-13.053294-18.273179-5.53711-5.221932-12.023848-9.335622-19.459191-12.340049-7.435343-3.006474-15.425318-4.50971-23.967878-4.50971L440.863335 304.335357c-8.54256 0-16.533558 1.50426-23.968901 4.50971-7.43432 3.00545-13.921058 7.118118-19.460214 12.340049-5.53711 5.220908-9.887184 11.311627-13.051247 18.273179-3.163039 6.960529-4.746094 14.396895-4.746094 22.307052l0 317.999564c0 7.912204 1.582031 15.268752 4.746094 22.071691 3.165086 6.800893 7.515161 12.81384 13.051247 18.034748 5.54018 5.221932 12.025894 9.335622 19.460214 12.341073 7.436366 3.00545 15.426341 4.508687 23.968901 4.508687l168.494529 0c8.54256 0 16.532535-1.50426 23.967878-4.508687s13.921058-7.119141 19.459191-12.341073c5.538133-5.220908 9.889231-11.233855 13.053294-18.034748 3.164063-6.80294 4.747117-14.159488 4.747117-22.071691L670.585343 361.765347z" p-id="4714"></path></svg>