<?xml version="1.0" standalone="no"?><!DOCTYPE svg PUBLIC "-//W3C//DTD SVG 1.1//EN" "http://www.w3.org/Graphics/SVG/1.1/DTD/svg11.dtd"><svg t="1552284293967" class="icon" style="" viewBox="0 0 1024 1024" version="1.1" xmlns="http://www.w3.org/2000/svg" p-id="5448" xmlns:xlink="http://www.w3.org/1999/xlink" width="200" height="200"><defs><style type="text/css"></style></defs><path d="M512 1000.727273C242.082909 1000.727273 23.272727 781.917091 23.272727 512S242.082909 23.272727 512 23.272727 1000.727273 242.082909 1000.727273 512 781.917091 1000.727273 512 1000.727273z m0-46.545455a442.181818 442.181818 0 1 0 0-884.363636 442.181818 442.181818 0 0 0 0 884.363636zM325.818182 279.365818C325.818182 253.672727 346.903273 232.727273 372.224 232.727273h279.552c25.6 0 46.405818 21.224727 46.405818 46.638545v465.268364c0 25.739636-21.085091 46.638545-46.405818 46.638545H372.224C346.624 791.272727 325.818182 770.048 325.818182 744.634182V279.365818zM372.363636 279.272727v325.818182h279.272728V279.272727H372.363636z m139.636364 465.454546a46.545455 46.545455 0 1 0 0-93.090909 46.545455 46.545455 0 0 0 0 93.090909z" fill="#ff9833" p-id="5449"></path></svg>