<?xml version="1.0" standalone="no"?><!DOCTYPE svg PUBLIC "-//W3C//DTD SVG 1.1//EN" "http://www.w3.org/Graphics/SVG/1.1/DTD/svg11.dtd"><svg t="1551798159681" class="icon" style="" viewBox="0 0 1024 1024" version="1.1" xmlns="http://www.w3.org/2000/svg" p-id="2079" xmlns:xlink="http://www.w3.org/1999/xlink" width="200" height="200"><defs><style type="text/css"></style></defs><path d="M752.927894 22.263815l-454.08247 0c0 0-65.210849-1.038677-65.210849 67.446262l-0.338699 813.780816c0 0-6.119162 67.130143 62.162558 67.130143L755.976185 970.621036c0 0 63.178655 0.993517 63.178655-64.397971L819.15484 89.732657C819.15484 89.732657 821.141874 22.263815 752.927894 22.263815L752.927894 22.263815zM460.495171 55.027299l130.376538 0 0 32.650584-130.376538 0L460.495171 55.027299 460.495171 55.027299zM411.587034 55.027299c9.031974 0 16.325292 7.270739 16.325292 16.302712 0 9.031974-7.270739 16.370452-16.325292 16.370452-8.986814 0-16.280132-7.315899-16.280132-16.370452C395.306902 62.298037 402.577641 55.027299 411.587034 55.027299L411.587034 55.027299zM525.70602 905.206968c-18.041367 0-32.605424-14.631797-32.605424-32.695744 0-18.041367 14.586637-32.718324 32.605424-32.718324 18.018787 0 32.605424 14.676957 32.605424 32.718324C558.334024 890.552591 543.724807 905.206968 525.70602 905.206968L525.70602 905.206968zM755.276207 774.378831 296.113252 774.378831 296.113252 120.351047l459.162955 0L755.276207 774.378831 755.276207 774.378831zM755.276207 774.378831" fill="#38c1cb" p-id="2080"></path></svg>