<?xml version="1.0" standalone="no"?><!DOCTYPE svg PUBLIC "-//W3C//DTD SVG 1.1//EN" "http://www.w3.org/Graphics/SVG/1.1/DTD/svg11.dtd"><svg t="1552283671572" class="icon" style="" viewBox="0 0 1024 1024" version="1.1" xmlns="http://www.w3.org/2000/svg" p-id="2546" xmlns:xlink="http://www.w3.org/1999/xlink" width="200" height="200"><defs><style type="text/css"></style></defs><path d="M512 1024C230.4 1024 0 793.6 0 512S230.4 0 512 0s512 230.4 512 512-230.4 512-512 512z m224-601.6c0 9.6-6.4 19.2-16 25.6l-192 128c-9.6 6.4-22.4 6.4-35.2 0l-192-128c-6.4-3.2-12.8-12.8-12.8-25.6V672c0 16 12.8 28.8 32 28.8h384c19.2 0 32-12.8 32-28.8v-249.6zM320 352c-19.2 0-32 12.8-32 28.8v12.8c0 9.6 6.4 19.2 16 25.6l192 128c9.6 6.4 22.4 6.4 35.2 0l192-128c9.6-6.4 16-16 16-25.6v-12.8c0-16-12.8-28.8-32-28.8H320z" fill="#7258FF" p-id="2547"></path></svg>